<?xml version="1.0" encoding="UTF-8" standalone="no"?>
<!DOCTYPE svg PUBLIC "-//W3C//DTD SVG 1.1//EN" "http://www.w3.org/Graphics/SVG/1.1/DTD/svg11.dtd">
<svg width="100%" height="100%" viewBox="0 0 24 24" version="1.1" xmlns="http://www.w3.org/2000/svg" xmlns:xlink="http://www.w3.org/1999/xlink" xml:space="preserve" xmlns:serif="http://www.serif.com/" style="fill-rule:evenodd;clip-rule:evenodd;stroke-linejoin:round;stroke-miterlimit:2;">
    <g>
        <path d="M6.94,5C6.939,6.097 6.037,6.999 4.94,6.999C3.843,6.999 2.94,6.096 2.94,4.999C2.94,4.999 2.94,4.998 2.94,4.998C2.941,3.901 3.843,2.999 4.94,2.999C6.037,2.999 6.94,3.902 6.94,4.999C6.94,4.999 6.94,5 6.94,5ZM7,8.48L3,8.48L3,21L7,21L7,8.48ZM13.32,8.48L9.34,8.48L9.34,21L13.28,21L13.28,14.43C13.28,10.77 18.05,10.43 18.05,14.43L18.05,21L22,21L22,13.07C22,6.9 14.94,7.13 13.28,10.16L13.32,8.48Z" style="fill:white;fill-rule:nonzero;"/>
    </g>
</svg>
