<?xml version="1.0" encoding="UTF-8" standalone="no"?>
<!DOCTYPE svg PUBLIC "-//W3C//DTD SVG 1.1//EN" "http://www.w3.org/Graphics/SVG/1.1/DTD/svg11.dtd">
<svg width="100%" height="100%" viewBox="0 0 7065 1128" version="1.1" xmlns="http://www.w3.org/2000/svg" xmlns:xlink="http://www.w3.org/1999/xlink" xml:space="preserve" xmlns:serif="http://www.serif.com/" style="fill-rule:evenodd;clip-rule:evenodd;stroke-linejoin:round;stroke-miterlimit:2;">
    <g id="Artboard1" transform="matrix(0.972333,0,0,0.440503,-1047.08,0)">
        <rect x="1076.87" y="0" width="7265.4" height="2560.16" style="fill:none;"/>
        <clipPath id="_clip1">
            <rect x="1076.87" y="0" width="7265.4" height="2560.16"/>
        </clipPath>
        <g clip-path="url(#_clip1)">
            <g id="Logotype-Icon-Mix" serif:id="Logotype Icon Mix" transform="matrix(1.02845,0,0,2.27013,-236.471,-1629.9)">
                <rect x="0.228" y="0.158" width="9481.61" height="2560" style="fill:none;"/>
            </g>
            <g transform="matrix(1.02845,0,0,2.27013,-236.471,-1629.9)">
                <g transform="matrix(1,0,0,1,2364.53,1782.26)">
                    <path d="M741.289,0L104.35,0L104.35,-1002.84L741.289,-1002.84L741.289,-799.562L262.907,-799.562L323.89,-856.48L323.89,-603.06L693.857,-603.06L693.857,-410.623L323.89,-410.623L323.89,-146.361L262.907,-203.279L741.289,-203.279L741.289,0Z" style="fill-rule:nonzero;"/>
                </g>
                <g transform="matrix(1,0,0,1,3147.83,1782.26)">
                    <rect x="104.35" y="-1002.84" width="219.541" height="1002.84" style="fill-rule:nonzero;"/>
                    <path d="M749.42,0L532.59,0L532.59,-1002.84L749.42,-1002.84L1240,-262.907L1172.24,-262.907L1172.24,-1002.84L1389.07,-1002.84L1389.07,0L1172.24,0L681.661,-738.579L749.42,-738.579L749.42,0Z" style="fill-rule:nonzero;"/>
                    <path d="M1734.64,0L1505.62,0L1863.39,-1002.84L2077.51,-1002.84L2433.92,0L2200.83,0L2130.36,-211.41L1806.47,-211.41L1734.64,0ZM1941.99,-609.836L1870.16,-395.715L2068.02,-395.715L1996.19,-609.836C1990.77,-627.001 1985.35,-644.619 1979.93,-662.688C1974.51,-680.757 1970.9,-695.664 1969.09,-707.409C1967.28,-695.664 1963.9,-680.983 1958.93,-663.366C1953.96,-645.748 1948.31,-627.905 1941.99,-609.836Z" style="fill-rule:nonzero;"/>
                    <path d="M2770.01,0L2550.47,0L2550.47,-1002.84L2938.05,-1002.84C3060.02,-1002.84 3154.2,-974.607 3220.61,-918.141C3287.01,-861.675 3320.22,-781.493 3320.22,-677.595C3320.22,-612.546 3306.44,-556.983 3278.88,-510.907C3251.33,-464.83 3209.54,-427.337 3153.53,-398.426L3329.7,0L3089.83,0L2939.41,-350.994L2770.01,-350.994L2770.01,0ZM2770.01,-807.693L2770.01,-543.431L2936.7,-543.431C2984.58,-543.431 3021.85,-555.176 3048.5,-578.666C3075.15,-602.156 3088.48,-635.132 3088.48,-677.595C3088.48,-720.058 3075.6,-752.356 3049.86,-774.491C3024.11,-796.626 2986.84,-807.693 2938.05,-807.693L2770.01,-807.693Z" style="fill-rule:nonzero;"/>
                    <path d="M3875.84,0L3482.84,0L3482.84,-1002.84L3862.29,-1002.84C3960.77,-1002.84 4047.28,-981.609 4121.81,-939.147C4196.35,-896.684 4254.85,-837.507 4297.31,-761.617C4339.77,-685.726 4361,-598.091 4361,-498.71C4361,-401.136 4340.45,-314.856 4299.34,-239.869C4258.23,-164.881 4201.32,-106.157 4128.59,-63.694C4055.86,-21.231 3971.61,0 3875.84,0ZM3702.38,-902.557L3702.38,-97.574L3598.03,-203.279L3854.16,-203.279C3911.98,-203.279 3961.45,-215.023 4002.55,-238.513C4043.66,-262.003 4075.06,-295.883 4096.74,-340.153C4118.42,-384.422 4129.26,-437.275 4129.26,-498.71C4129.26,-561.952 4117.74,-615.934 4094.71,-660.655C4071.67,-705.376 4038.69,-739.708 3995.78,-763.65C3952.86,-787.591 3901.14,-799.562 3840.61,-799.562L3598.03,-799.562L3702.38,-902.557Z" style="fill-rule:nonzero;"/>
                    <path d="M4458.57,-711.475C4458.57,-772.007 4474.39,-825.537 4506.01,-872.065C4537.63,-918.593 4581.22,-955.183 4636.78,-981.835C4692.35,-1008.49 4755.81,-1021.81 4827.19,-1021.81C4899.46,-1021.81 4961.8,-1009.17 5014.2,-983.868C5066.6,-958.571 5107.03,-922.884 5135.49,-876.808C5163.95,-830.731 5178.18,-776.072 5178.18,-712.83L4959.99,-712.83C4959.99,-748.065 4947.8,-775.846 4923.4,-796.174C4899.01,-816.502 4866.04,-826.666 4824.48,-826.666C4780.21,-826.666 4744.75,-817.18 4718.09,-798.207C4691.44,-779.234 4678.12,-753.034 4678.12,-719.606C4678.12,-688.888 4686.25,-665.398 4702.51,-649.136C4718.77,-632.874 4744.52,-621.129 4779.76,-613.901L4930.18,-582.732C5019.62,-564.663 5086.03,-533.267 5129.39,-488.546C5172.76,-443.825 5194.44,-381.712 5194.44,-302.207C5194.44,-238.062 5178.63,-181.821 5147.01,-133.486C5115.39,-85.151 5070.9,-47.883 5013.53,-21.683C4956.16,4.517 4889.07,17.617 4812.28,17.617C4738.2,17.617 4673.37,4.969 4617.81,-20.328C4562.25,-45.625 4519.33,-81.537 4489.07,-128.065C4458.8,-174.594 4443.67,-229.027 4443.67,-291.366L4661.85,-291.366C4661.85,-255.227 4674.95,-227.22 4701.15,-207.344C4727.35,-187.468 4764.85,-177.53 4813.64,-177.53C4863.32,-177.53 4902.63,-186.79 4931.54,-205.311C4960.45,-223.832 4974.9,-248.903 4974.9,-280.524C4974.9,-308.532 4967.9,-330.215 4953.9,-345.573C4939.89,-360.932 4916.18,-371.774 4882.75,-378.098L4729.61,-409.267C4640.17,-427.337 4572.64,-461.668 4527.01,-512.262C4481.39,-562.856 4458.57,-629.26 4458.57,-711.475Z" style="fill-rule:nonzero;"/>
                </g>
                <path id="FINAL" d="M1612.03,782.867L1611.52,782.255L1610.79,782.867L1309.18,782.867L1309.18,1782.43L1502.63,1782.43L1502.63,1095.81L1622.08,1095.81L2207.95,1794.02L2356.15,1669.67L1874.62,1095.81L2308.74,1095.81L2308.74,782.867L1612.03,782.867Z"/>
            </g>
        </g>
    </g>
</svg>
