<?xml version="1.0" encoding="UTF-8" standalone="no"?>
<!DOCTYPE svg PUBLIC "-//W3C//DTD SVG 1.1//EN" "http://www.w3.org/Graphics/SVG/1.1/DTD/svg11.dtd">
<svg width="100%" height="100%" viewBox="0 0 402 128" version="1.1" xmlns="http://www.w3.org/2000/svg" xmlns:xlink="http://www.w3.org/1999/xlink" xml:space="preserve" xmlns:serif="http://www.serif.com/" style="fill-rule:evenodd;clip-rule:evenodd;stroke-linejoin:round;stroke-miterlimit:2;">
    <g transform="matrix(1,0,0,1,-5.68434e-14,-234.815)">
        <g id="Artboard1" transform="matrix(0.64751,0,0,0.611482,454.847,120.385)">
            <rect x="-702.454" y="187.136" width="620.22" height="208.251" style="fill:none;"/>
            <g transform="matrix(0.856014,0,0,2.88841,-1428.25,-105.942)">
                <g transform="matrix(1.21756e-16,0.624015,-1.98843,3.82099e-17,1337.19,-770.236)">
                    <path d="M1505.02,189.848C1505.02,217.692 1482.41,240.298 1454.57,240.298C1426.72,240.298 1404.12,217.692 1404.12,189.848L1505.02,189.848Z" style="fill:rgb(223,227,228);"/>
                </g>
                <g transform="matrix(1.21756e-16,0.624015,-1.98843,3.82099e-17,1437.5,-770.236)">
                    <path d="M1505.02,189.848C1505.02,217.692 1482.41,240.298 1454.57,240.298C1426.72,240.298 1404.12,217.692 1404.12,189.848L1505.02,189.848Z" style="fill:rgb(115,126,140);"/>
                </g>
                <g transform="matrix(2.26304,5.54668e-32,2.21867e-31,0.710193,-2302.95,21.1411)">
                    <path d="M1486.04,208.078C1486.04,183.613 1505.9,163.75 1530.37,163.75C1554.83,163.75 1574.7,183.613 1574.7,208.078L1486.04,208.078Z" style="fill:rgb(196,166,148);"/>
                </g>
                <g transform="matrix(1.80415,0,0,0.566183,0,0)">
                    <path d="M643.142,242.74C673.83,242.74 698.746,267.655 698.746,298.343L643.142,298.343L643.142,242.74Z" style="fill:rgb(196,166,148);"/>
                </g>
                <g transform="matrix(-2.26304,2.498e-16,-8.88178e-16,-0.710193,4824.24,285.211)">
                    <path d="M1486.04,208.078C1486.04,183.613 1505.9,163.75 1530.37,163.75C1554.83,163.75 1574.7,183.613 1574.7,208.078L1486.04,208.078Z" style="fill:rgb(174,180,188);"/>
                </g>
                <g transform="matrix(-3.47571e-16,0.710193,-2.26304,-8.0145e-17,1932.16,-949.421)">
                    <path d="M1486.04,208.078C1486.04,183.613 1505.9,163.75 1530.37,163.75C1554.83,163.75 1574.7,183.613 1574.7,208.078L1486.04,208.078Z" style="fill:rgb(8,64,181);"/>
                </g>
                <g transform="matrix(2.26304,6.16298e-32,2.21867e-31,0.710193,-2002,-10.3407)">
                    <path d="M1486.04,208.078C1486.04,183.613 1505.9,163.75 1530.37,163.75C1554.83,163.75 1574.7,183.613 1574.7,208.078L1486.04,208.078Z" style="fill:rgb(223,227,228);"/>
                </g>
                <g transform="matrix(2.26304,5.54668e-32,2.21867e-31,0.710193,-2302.95,-10.3407)">
                    <path d="M1486.04,208.078C1486.04,183.613 1505.9,163.75 1530.37,163.75C1554.83,163.75 1574.7,183.613 1574.7,208.078L1486.04,208.078Z" style="fill:rgb(255,244,204);"/>
                </g>
            </g>
        </g>
    </g>
</svg>
